PathFileType	4	(X/Y/Z)	OpenSim_Sub08_CSBaseline_Accel.trc
DataRate	CameraRate	NumFrames	NumMarkers	Units	OrigDataRate	OrigDataStartFrame	OrigNumFrames
100	100	13	8	m	100	1366	5461
Frame#	Time	torso_imu_offset_imu	pelvis_imu_offset_imu	tibia_r_imu_offset_imu	femur_r_imu_offset_imu	tibia_l_imu_offset_imu	femur_l_imu_offset_imu	toes_r_imu_offset_imu	toes_l_imu_offset_imu
				X1	Y1	Z1	X2	Y2	Z2	X3	Y3	Z3	X4	Y4	Z4	X5	Y5	Z5	X6	Y6	Z6	X7	Y7	Z7	X8		Y8	Z8	

1366	13.65000000	8.91568800	0.15715000	6.38666600	9.17961200	-0.83578800	1.57532000	8.27223400	0.33287200	-0.26616500	7.47477700	-6.79528700	1.29959700	10.11484700	-2.21559300	-0.38591000	9.75537500	2.68645200	-1.89678800	11.77793100	2.05387700	1.31386000	5.93619300	0.77602400	10.39145700
1367	13.66000000	8.96475800	0.08739900	6.33374600	9.19793500	-1.08493700	1.27038800	8.43654700	-0.33788400	-0.52210700	7.25860500	-5.85364000	1.29928400	10.20700800	-1.60487400	-0.15669900	9.45694100	2.99864200	-1.65655000	10.50800200	0.85628500	1.91067600	5.72309500	1.60239500	10.97627400
1368	13.67000000	8.95677100	0.10357600	6.29002500	9.34105700	-1.18425900	1.19354000	8.38431500	-0.18683700	-0.78779800	7.29467900	-4.65690600	1.77760900	10.14982100	-1.65114200	-0.30955800	9.09653900	3.59682900	-1.40233400	-3.06475900	-11.67134200	9.50455100	5.59636000	1.12863000	10.85262700
1369	13.68000000	9.05294000	0.07515700	6.31106600	9.64381500	-1.28369000	1.55314600	9.18143100	0.28649600	0.30355500	7.69521900	-3.11502500	2.69653300	9.99426000	-2.06609800	-0.14534200	8.76335900	4.26419400	-1.22292200	-2.82802100	-13.84938800	13.97229100	5.36822800	1.27003200	11.05283700
1370	13.69000000	9.57126700	0.00055500	6.50307100	9.84660600	-0.82711900	2.03822500	12.01717600	-0.03855300	3.47111900	9.43785900	-1.63169400	3.14534500	10.18791600	-2.22299200	-0.50359400	8.68183500	4.60009200	-1.09747200	-4.82035900	-6.28771400	10.13232200	5.56799100	1.23490100	10.73244900
1371	13.70000000	10.26533600	-0.07362500	6.61107400	10.09166300	-0.13594700	2.57510900	14.73573700	-4.41288200	4.18466000	11.30653600	-0.14612800	2.89310400	10.76250400	-1.90518000	-0.41934000	8.90111400	4.68086900	-0.90012000	-10.87065500	-8.95204200	0.53506100	5.47720900	1.49996700	10.96060900
1372	13.71000000	10.51736000	-0.07832400	6.59037400	10.51247900	0.77971800	2.98056900	13.67759800	-10.58005800	3.54122600	11.48560900	1.07563800	2.49766700	11.30666300	-1.56188300	-0.08350300	9.48194200	4.70618900	-0.69561700	3.11288500	-9.00319900	6.29261800	5.12335400	1.41971300	10.94168600
1373	13.72000000	10.01681100	0.00846000	6.38128100	11.01488700	1.38233900	3.37888000	9.54030400	-13.94581100	2.85345200	10.58185700	1.16289700	3.03898600	11.70541600	-1.60055800	0.14927400	9.89528500	4.77714600	-0.62775600	15.84038100	-3.06594900	11.88349200	4.77868600	1.20468200	11.23739300
1374	13.73000000	9.60421100	0.09985600	6.44275800	11.31655700	1.54119200	3.70208300	7.24470600	-13.16344100	1.74147100	11.33132800	0.36312100	3.52230700	12.19364700	-1.39732800	-0.16103000	9.80570000	4.88209500	-0.79574100	6.61092700	5.39631200	12.08174800	4.58188300	0.57147700	10.75243000
1375	13.74000000	10.32517600	0.04080900	6.72795700	11.27480800	1.81508100	4.10687300	10.88308400	-8.59525000	1.25680100	14.00884700	-1.37003300	3.44375200	12.85961200	-0.40532300	-0.04905000	9.60954400	4.98815200	-0.95417100	6.59676200	10.91457000	14.70048500	4.96646800	0.84277500	11.46349500
1376	13.75000000	11.29257200	-0.09112800	6.88583500	11.31106500	2.21992900	4.90606500	16.54119500	-2.18699700	2.80151000	15.47395000	-4.35815000	2.39832700	13.53116400	0.67517100	0.52031300	9.81418800	5.14313000	-1.05525800	13.02988100	-0.13004600	13.17654400	4.81331500	1.19824600	11.34865700
1377	13.76000000	11.53872100	-0.17801100	6.80823500	11.12911400	2.23378300	5.45859300	17.33623200	4.86217700	2.75743000	13.61224100	-6.31322900	0.36169200	13.94358300	1.69539600	0.72072800	9.96968100	5.21396300	-0.94027100	11.25757900	-7.85822200	8.28519100	4.77378100	1.81727300	11.91413900
1378	13.77000000	11.11279300	-0.10045600	6.73852000	10.63583900	1.63102400	5.47122100	11.69107300	8.16485200	1.02566900	10.89850900	-5.56560100	-1.01894000	14.03953100	2.69367600	1.24621200	10.05189400	5.09836800	-0.88013800	15.06786500	-9.52341500	10.27458400	5.00748200	1.95887400	11.79046300
